<svg width="124" height="32" viewBox="0 0 124 32" fill="none" xmlns="http://www.w3.org/2000/svg">
<path d="M54.0299 8.00997H56.8399C57.0159 8.00995 57.1848 8.07916 57.3102 8.20266C57.4356 8.32615 57.5073 8.49401 57.5099 8.66997V24.15C57.5099 24.3277 57.4394 24.4981 57.3137 24.6237C57.1881 24.7494 57.0176 24.82 56.8399 24.82H54.0299C53.8523 24.82 53.6818 24.7494 53.5562 24.6237C53.4305 24.4981 53.3599 24.3277 53.3599 24.15V17.82H45.4299V24.15C45.43 24.3259 45.3608 24.4949 45.2373 24.6202C45.1138 24.7456 44.9459 24.8173 44.7699 24.82H41.9899C41.8123 24.82 41.6418 24.7494 41.5162 24.6237C41.3905 24.4981 41.3199 24.3277 41.3199 24.15V8.66997C41.3226 8.49401 41.3943 8.32615 41.5197 8.20266C41.6451 8.07916 41.814 8.00995 41.9899 8.00997H44.7999C44.9742 8.01255 45.1406 8.08291 45.2638 8.20613C45.387 8.32935 45.4574 8.49573 45.4599 8.66997V15.2H53.3599V8.66997C53.3626 8.49401 53.4343 8.32615 53.5597 8.20266C53.6851 8.07916 53.854 8.00995 54.0299 8.00997Z" fill="#662E2C"/>
<path fill-rule="evenodd" clip-rule="evenodd" d="M73.8299 24.85C73.6893 24.8518 73.5519 24.8079 73.4383 24.725C73.3247 24.642 73.241 24.5245 73.1999 24.39C73.0399 23.9 71.6699 20.77 71.4299 20.1H65.0999C64.8699 20.77 63.6299 23.94 63.4799 24.43C63.4356 24.5644 63.3497 24.6814 63.2347 24.764C63.1198 24.8467 62.9815 24.8908 62.8399 24.89H60.2499C60.1446 24.8896 60.0408 24.864 59.9473 24.8153C59.8538 24.7666 59.7734 24.6963 59.7127 24.6101C59.652 24.5239 59.6128 24.4245 59.5984 24.3201C59.584 24.2157 59.5948 24.1093 59.6299 24.01C60.2099 22.36 60.4699 21.6 60.9999 20.17C61.6199 18.49 62.2266 16.9066 62.8199 15.42C63.4199 13.93 63.9999 12.52 64.5799 11.18C65.1599 9.83997 65.2099 9.57997 65.7699 8.41997C65.8238 8.30712 65.909 8.21219 66.0154 8.14657C66.1219 8.08094 66.2449 8.0474 66.3699 8.04996H70.2399C70.3675 8.04759 70.4929 8.08222 70.6012 8.14966C70.7095 8.21709 70.7959 8.31446 70.8499 8.42997C71.3899 9.57997 71.57 9.97997 72.09 11.18C72.61 12.38 73.2699 13.93 73.8699 15.42C74.4699 16.91 75.0799 18.45 75.6999 20.15C76.2299 21.58 76.4999 22.34 77.0799 23.99C77.1154 24.0901 77.1261 24.1974 77.1112 24.3026C77.0963 24.4078 77.0562 24.5078 76.9944 24.5942C76.9325 24.6806 76.8507 24.7508 76.7559 24.7988C76.6612 24.8468 76.5562 24.8712 76.4499 24.87L73.8299 24.85ZM68.3563 11.7798C68.3892 11.8019 68.4149 11.8333 68.4299 11.87L68.6699 12.44L69.2999 14.03C69.5299 14.63 69.7899 15.35 70.0499 16.03C70.3099 16.71 70.3699 16.91 70.6499 17.71H65.8399C66.1299 16.91 66.1799 16.8 66.4599 16.07C66.7399 15.34 66.9899 14.67 67.2199 14.07L67.8299 12.48C67.9199 12.25 67.9999 12.05 68.0599 11.87C68.075 11.8333 68.1007 11.8019 68.1336 11.7798C68.1665 11.7577 68.2053 11.746 68.2449 11.746C68.2846 11.746 68.3234 11.7577 68.3563 11.7798Z" fill="#662E2C"/>
<path d="M101.59 24.85H80.0699C79.9815 24.8475 79.8945 24.8272 79.814 24.7903C79.7335 24.7535 79.6613 24.7009 79.6016 24.6356C79.5419 24.5703 79.4959 24.4936 79.4665 24.4102C79.437 24.3268 79.4245 24.2383 79.4299 24.15V8.66997C79.4299 8.49492 79.4995 8.32705 79.6233 8.20328C79.747 8.0795 79.9149 8.00997 80.09 8.00997H82.91C82.997 8.00862 83.0834 8.02476 83.1641 8.05746C83.2448 8.09015 83.3181 8.13871 83.3796 8.20027C83.4412 8.26183 83.4898 8.33512 83.5225 8.41581C83.5551 8.49649 83.5713 8.58292 83.5699 8.66997V21.56C83.5699 21.7509 83.6458 21.9341 83.7808 22.0691C83.9159 22.2041 84.099 22.28 84.2899 22.28H88.7799V8.66997C88.7799 8.49492 88.8495 8.32705 88.9733 8.20328C89.097 8.0795 89.2649 8.00997 89.4399 8.00997H92.2599C92.347 8.00862 92.4334 8.02476 92.5141 8.05746C92.5948 8.09015 92.6681 8.13871 92.7296 8.20027C92.7912 8.26183 92.8398 8.33512 92.8725 8.41581C92.9052 8.49649 92.9213 8.58292 92.9199 8.66997V22.28H98.1299V8.66997C98.1299 8.49492 98.1995 8.32705 98.3233 8.20328C98.447 8.0795 98.6149 8.00997 98.7899 8.00997H101.61C101.697 8.00862 101.783 8.02476 101.864 8.05746C101.945 8.09015 102.018 8.13871 102.08 8.20027C102.141 8.26183 102.19 8.33512 102.222 8.41581C102.255 8.49649 102.271 8.58292 102.27 8.66997V24.15C102.277 24.242 102.265 24.3346 102.233 24.4214C102.202 24.5083 102.153 24.5874 102.088 24.6537C102.024 24.7199 101.946 24.7717 101.86 24.8055C101.774 24.8394 101.682 24.8545 101.59 24.85Z" fill="#662E2C"/>
<path d="M106.16 24.15V8.67997C106.16 8.50227 106.231 8.33185 106.356 8.2062C106.482 8.08055 106.652 8.00997 106.83 8.00997H119.83C120.008 8.00997 120.178 8.08055 120.304 8.2062C120.429 8.33185 120.5 8.50227 120.5 8.67997V9.87996C120.5 10.0577 120.429 10.2281 120.304 10.3537C120.178 10.4794 120.008 10.55 119.83 10.55H110.73C110.642 10.55 110.555 10.5673 110.474 10.601C110.392 10.6346 110.318 10.684 110.256 10.7462C110.194 10.8084 110.145 10.8823 110.111 10.9636C110.077 11.0449 110.06 11.132 110.06 11.22V15.22H118.06C118.239 15.2199 118.41 15.2902 118.537 15.4156C118.665 15.541 118.737 15.7114 118.74 15.89V17.05C118.737 17.2286 118.665 17.399 118.537 17.5243C118.41 17.6497 118.239 17.72 118.06 17.72H110.06V21.64C110.06 21.728 110.077 21.8151 110.111 21.8964C110.145 21.9777 110.194 22.0515 110.256 22.1137C110.318 22.1759 110.392 22.2253 110.474 22.259C110.555 22.2926 110.642 22.31 110.73 22.31H119.8C119.978 22.31 120.148 22.3806 120.274 22.5062C120.399 22.6319 120.47 22.8023 120.47 22.98V24.15C120.47 24.3277 120.399 24.4981 120.274 24.6237C120.148 24.7494 119.978 24.82 119.8 24.82H106.8C106.628 24.8122 106.465 24.7382 106.345 24.6134C106.226 24.4886 106.16 24.3226 106.16 24.15Z" fill="#662E2C"/>
<path fill-rule="evenodd" clip-rule="evenodd" d="M18.1679 21.4549C18.1686 21.4532 18.1693 21.4516 18.17 21.4499V21.4599C18.1693 21.4582 18.1686 21.4565 18.1679 21.4549ZM13.7379 27.2494C13.7386 27.2496 13.7393 27.2497 13.74 27.2499V27.2599C13.7383 27.2561 13.7365 27.2523 13.7348 27.2485C13.7358 27.2488 13.7369 27.2491 13.7379 27.2494Z" fill="#CF643F"/>
<path fill-rule="evenodd" clip-rule="evenodd" d="M29.94 9.83994V8.83994C29.94 6.77994 28.94 3.05994 22.04 1.36994C21.35 1.19994 20.8 1.10994 20.54 1.06994H20.35C20.0013 1.03191 19.6508 1.01189 19.3 1.00994C18.9922 1.00631 18.6847 1.02637 18.38 1.06994H18.18C17.92 1.06994 17.39 1.19994 16.7 1.36994C9.82 3.05994 8.79 6.77994 8.79 8.84994V9.73994C5.67 11.2299 4 13.4399 4 16.1499C4 23.8199 7.56 28.3899 14.56 29.7199L14.89 29.7799H15.02C15.5 29.8599 16.02 29.9299 16.54 29.9799H17.25C17.97 29.9799 18.63 30.0499 19.25 30.0499C19.87 30.0499 20.65 30.0499 21.47 29.9599L22.13 29.8999C22.65 29.8499 23.13 29.7699 23.67 29.6899H23.83L24.1 29.6399C31.07 28.3299 34.57 23.7799 34.57 16.1499C34.57 13.4899 32.97 11.2999 29.94 9.83994ZM25.03 27.1499C29.96 25.7399 32.35 22.1499 32.35 16.1499C32.3202 15.3255 32.0649 14.525 31.6117 13.8356C31.1586 13.1462 30.525 12.5943 29.78 12.2399C29.36 16.3299 27.97 20.6899 25.03 27.1499ZM27.73 9.19994V8.85994C27.73 6.35994 25.43 4.91994 23.43 4.14994C23.7806 4.93986 23.9579 5.79573 23.95 6.65994C23.95 10.8699 23.39 14.6399 20.55 21.4999C20.27 22.2199 19.93 23.0299 19.55 23.8799C19.01 25.1299 18.39 26.4599 17.71 27.8799C18.9117 27.9697 20.1183 27.9697 21.32 27.8799C21.64 27.8499 21.99 27.7899 22.32 27.7899C22.46 27.4899 22.6 27.1999 22.73 26.9099C26.52 18.6599 27.45 14.6599 27.67 11.1999C27.73 10.5599 27.73 9.92994 27.73 9.19994ZM17.02 6.67994C17.02 9.70994 17.2 12.6999 19.37 18.4499V18.4599C21.55 12.7099 21.73 9.71994 21.73 6.65994C21.7152 5.982 21.5364 5.31773 21.2091 4.7239C20.8817 4.13007 20.4154 3.62435 19.85 3.24994C19.7207 3.14259 19.558 3.08383 19.39 3.08383C19.222 3.08383 19.0593 3.14259 18.93 3.24994C18.3581 3.62473 17.8856 4.13256 17.553 4.72993C17.2203 5.3273 17.0374 5.99641 17.02 6.67994ZM15.87 26.5399C12.19 18.5399 11.29 14.5399 11.08 11.1099C11.08 10.4999 11.02 9.87994 11.02 9.10994V8.81994C11.02 6.31994 13.29 4.87994 15.36 4.08994C14.9884 4.88853 14.7972 5.75914 14.8 6.63994C14.8 10.8789 15.3497 14.6481 18.1679 21.4549L18.17 21.4499V21.4599L18.1679 21.4549C17.5084 22.9936 16.7391 24.7019 15.87 26.5399ZM6.22 16.1499C6.22 14.5599 7.14 13.2299 8.96 12.1499C9.36976 16.3175 10.7684 20.7248 13.7348 27.2485L13.7379 27.2494C13.7386 27.2496 13.7393 27.2497 13.74 27.2499V27.2599L13.7348 27.2485C8.67831 25.8474 6.22 22.2079 6.22 16.1499Z" fill="#CF643F"/>
</svg>
