<?xml version="1.0" encoding="utf-8"?><svg viewBox="0 0 32 32" xmlns="http://www.w3.org/2000/svg" xmlns:xlink="http://www.w3.org/1999/xlink"><style>:root>svg{display:none}:root>svg:target{display:block}</style><svg viewBox="0 0 20 20" id="angle-right" xmlns="http://www.w3.org/2000/svg"><path fill-rule="evenodd" clip-rule="evenodd" d="M7.5 3.94l.53.53 5 5 .53.53-.53.53-5 5-.53.53L6.44 15l.53-.53L11.44 10 6.97 5.53 6.44 5 7.5 3.94z"/></svg><svg viewBox="0 0 20 20" id="arrow-right" xmlns="http://www.w3.org/2000/svg"><path fill-rule="evenodd" clip-rule="evenodd" d="M10 3.106l.53.53 5.833 5.834.53.53-.53.53-5.833 5.834-.53.53-1.06-1.06.53-.531 4.553-4.553H3.416v-1.5h10.607L9.469 4.697l-.53-.53L10 3.106z"/></svg><svg viewBox="0 0 24 24" id="cart" xmlns="http://www.w3.org/2000/svg"><path fill-rule="evenodd" clip-rule="evenodd" d="M5.863 1.625h12.275l.262.35 2.85 3.8.175.233V19.6a2.775 2.775 0 01-2.775 2.775H5.35A2.775 2.775 0 012.575 19.6V6.008l.175-.233 2.85-3.8.263-.35zm.875 1.75L5.2 5.425h13.6l-1.537-2.05H6.738zm12.937 3.8H4.325V19.6a1.025 1.025 0 001.025 1.025h13.3a1.025 1.025 0 001.025-1.025V7.175zm-10.6 2.05v.875a2.925 2.925 0 105.85 0v-.875h1.75v.875a4.675 4.675 0 11-9.35 0v-.875h1.75z"/></svg><svg viewBox="0 0 32 32" id="facebook" xmlns="http://www.w3.org/2000/svg"><path d="M17.069 26.667v-9.732h3.266l.489-3.792h-3.756v-2.421c0-1.098.305-1.847 1.88-1.847h2.008V5.483c-.347-.046-1.54-.15-2.926-.15-2.896 0-4.878 1.768-4.878 5.013v2.797H9.877v3.793h3.275v9.73h3.917z"/></svg><svg viewBox="0 0 24 24" id="favorite" xmlns="http://www.w3.org/2000/svg"><path fill-rule="evenodd" clip-rule="evenodd" d="M4.999 2.596a6.275 6.275 0 016.85 1.366l.004.003.147.15.147-.15.003-.003a6.276 6.276 0 018.89 0c2.491 2.492 2.557 6.623-.416 9.65l-.005.007-8 8-.619.618-.619-.618-8-8-.005-.006C.403 10.585.469 6.454 2.96 3.962a6.275 6.275 0 012.038-1.366zm2.406 1.27A4.525 4.525 0 004.2 5.199h-.001c-1.747 1.748-1.942 4.775.423 7.186L12 19.762l7.378-7.378c2.365-2.411 2.17-5.438.423-7.185v-.001a4.525 4.525 0 00-6.41-.002l-.001.002-.767.777-.623.63-.623-.63-.767-.777-.001-.002a4.525 4.525 0 00-3.204-1.33z"/></svg><svg viewBox="0 0 25 24" id="favorite-filled" xmlns="http://www.w3.org/2000/svg"><path fill-rule="evenodd" clip-rule="evenodd" d="M5.665 2.596a6.275 6.275 0 016.852 1.366l.002.003.148.15.147-.15.003-.003a6.275 6.275 0 018.889 0c2.492 2.492 2.558 6.623-.415 9.65l-.006.007-8.618 8.618-8.625-8.624c-2.972-3.028-2.906-7.159-.415-9.651a6.275 6.275 0 012.038-1.366zm2.407 1.27a4.525 4.525 0 00-3.206 1.332c-1.748 1.748-1.942 4.775.422 7.186l7.379 7.378 7.378-7.378c2.364-2.411 2.17-5.438.423-7.185l-.001-.001a4.525 4.525 0 00-6.41-.002v.002l-1.39 1.407-1.39-1.407-.002-.002a4.525 4.525 0 00-3.203-1.33z"/><path d="M6.336 4.213a4.525 4.525 0 014.94.983v.002l1.39 1.407 1.39-1.407.002-.002a4.525 4.525 0 016.409.002h.001c1.747 1.748 1.941 4.775-.423 7.186l-7.378 7.378-7.379-7.378C2.924 9.973 3.118 6.946 4.865 5.2l.001-.001c.42-.422.92-.757 1.47-.985z" fill-opacity=".12"/></svg><svg viewBox="0 0 20 12" id="glasses" xmlns="http://www.w3.org/2000/svg"><path fill-rule="evenodd" clip-rule="evenodd" d="M1.2.4a.8.8 0 00-.8.8v6a4.4 4.4 0 108.792-.261 2.396 2.396 0 011.615 0 4.4 4.4 0 108.792.26v-6a.8.8 0 00-1.6 0v2.606a4.4 4.4 0 00-6.808 1.575 3.998 3.998 0 00-2.384 0 4.4 4.4 0 00-6.808-1.575V1.2a.8.8 0 00-.8-.8zm6.4 6.8a2.8 2.8 0 10-5.6 0 2.8 2.8 0 005.6 0zm7.6 2.8a2.8 2.8 0 110-5.6 2.8 2.8 0 010 5.6z"/></svg><svg viewBox="0 0 32 32" id="instagram" xmlns="http://www.w3.org/2000/svg"><path d="M12.668 16a3.333 3.333 0 116.666 0 3.333 3.333 0 01-6.666 0zm-1.802 0a5.135 5.135 0 1010.27 0 5.135 5.135 0 00-10.27 0zm9.273-5.338a1.2 1.2 0 101.2-1.2 1.2 1.2 0 00-1.2 1.2zM11.96 24.14c-.975-.045-1.505-.207-1.857-.344a3.109 3.109 0 01-1.15-.748 3.086 3.086 0 01-.748-1.15c-.137-.352-.3-.882-.344-1.857-.048-1.054-.058-1.37-.058-4.04 0-2.671.01-2.987.058-4.042.045-.975.208-1.504.344-1.857.182-.467.398-.8.748-1.15.35-.35.683-.567 1.15-.748.352-.138.882-.3 1.857-.344C13.014 7.81 13.331 7.8 16 7.8c2.67 0 2.987.01 4.042.059.975.044 1.504.208 1.857.344.466.18.8.398 1.15.748.35.35.566.683.748 1.15.137.352.3.882.344 1.857.048 1.055.058 1.37.058 4.041 0 2.67-.01 2.986-.058 4.041-.044.975-.208 1.505-.344 1.857a3.1 3.1 0 01-.748 1.15 3.11 3.11 0 01-1.15.748c-.352.137-.882.3-1.857.344-1.055.048-1.371.058-4.042.058-2.67 0-2.986-.01-4.04-.058zm-.082-18.08c-1.065.049-1.792.218-2.428.465A4.905 4.905 0 007.68 7.678 4.886 4.886 0 006.525 9.45c-.247.636-.416 1.363-.464 2.427-.05 1.066-.06 1.407-.06 4.123s.01 3.057.06 4.123c.048 1.064.217 1.791.464 2.427a4.888 4.888 0 001.154 1.771 4.916 4.916 0 001.771 1.154c.637.247 1.363.416 2.428.464 1.066.049 1.407.061 4.122.061 2.716 0 3.057-.011 4.123-.06 1.065-.049 1.792-.218 2.427-.465a4.917 4.917 0 001.772-1.154 4.899 4.899 0 001.153-1.77c.248-.637.417-1.364.465-2.428.048-1.067.06-1.407.06-4.123s-.012-3.057-.06-4.123c-.049-1.064-.217-1.792-.465-2.427a4.918 4.918 0 00-1.153-1.772 4.893 4.893 0 00-1.77-1.153c-.637-.247-1.364-.417-2.428-.464C19.058 6.012 18.717 6 16.001 6s-3.057.011-4.123.06z"/></svg><svg viewBox="0 0 32 32" id="ok" xmlns="http://www.w3.org/2000/svg"><path d="M16 8.56a2.282 2.282 0 012.28 2.28A2.282 2.282 0 0116 13.118a2.282 2.282 0 01-2.28-2.278A2.282 2.282 0 0116 8.56zm0 7.783a5.51 5.51 0 005.506-5.503A5.512 5.512 0 0016 5.333a5.512 5.512 0 00-5.506 5.507A5.51 5.51 0 0016 16.343zm2.227 4.491a10.308 10.308 0 003.197-1.323 1.613 1.613 0 00-1.718-2.731 6.992 6.992 0 01-7.412 0 1.612 1.612 0 00-2.432 1.723c.095.418.351.78.713 1.008a10.316 10.316 0 003.197 1.323l-3.078 3.079a1.613 1.613 0 002.281 2.28L16 23.17l3.026 3.025a1.611 1.611 0 102.28-2.28l-3.078-3.08z"/></svg><svg viewBox="0 0 20 21" id="plus" xmlns="http://www.w3.org/2000/svg"><path fill-rule="evenodd" clip-rule="evenodd" d="M10.75 3.418v5.834h5.833v1.5H10.75v5.833h-1.5v-5.833H3.417v-1.5H9.25V3.418h1.5z"/></svg><svg viewBox="0 0 24 24" id="search" xmlns="http://www.w3.org/2000/svg"><path fill-rule="evenodd" clip-rule="evenodd" d="M11 3.875a7.125 7.125 0 104.768 12.42l.527-.527A7.125 7.125 0 0011 3.875zm6.864 12.752a8.875 8.875 0 10-1.237 1.237l3.754 3.755.619.618L22.237 21l-.618-.619-3.755-3.755z"/></svg><svg viewBox="0 0 24 24" id="user" xmlns="http://www.w3.org/2000/svg"><path fill-rule="evenodd" clip-rule="evenodd" d="M12 2.875a3.57 3.57 0 100 7.139 3.57 3.57 0 000-7.139zm-5.32 3.57a5.32 5.32 0 1110.64 0 5.32 5.32 0 01-10.64 0zm-2.886 9.571a5.32 5.32 0 013.762-1.558h8.889a5.32 5.32 0 015.32 5.32v3.097h-1.75v-3.097a3.57 3.57 0 00-3.57-3.57h-8.89a3.57 3.57 0 00-3.569 3.57v3.097h-1.75v-3.097c0-1.411.56-2.764 1.558-3.762z"/></svg><svg viewBox="0 0 32 32" id="vk" xmlns="http://www.w3.org/2000/svg"><path fill-rule="evenodd" clip-rule="evenodd" d="M26.177 11.023c.149-.494 0-.858-.706-.858h-2.333c-.594 0-.867.314-1.016.66 0 0-1.186 2.893-2.868 4.772-.544.544-.791.717-1.088.717-.148 0-.363-.173-.363-.667v-4.624c0-.593-.172-.858-.667-.858H13.47c-.371 0-.594.276-.594.537 0 .562.84.692.927 2.274v3.437c0 .754-.136.89-.433.89-.79 0-2.715-2.905-3.857-6.23-.224-.647-.448-.908-1.044-.908H6.134c-.667 0-.8.314-.8.66 0 .619.79 3.684 3.684 7.74 1.928 2.768 4.645 4.27 7.118 4.27 1.484 0 1.667-.334 1.667-.908v-2.093c0-.667.14-.8.61-.8.347 0 .94.173 2.325 1.508 1.582 1.583 1.843 2.293 2.733 2.293h2.334c.667 0 1-.334.808-.992-.21-.655-.966-1.607-1.969-2.735-.544-.643-1.36-1.335-1.607-1.681-.346-.445-.247-.643 0-1.038 0 0 2.844-4.006 3.14-5.366z"/></svg></svg>