<?xml version="1.0" encoding="utf-8"?><svg viewBox="0 0 48 48" xmlns="http://www.w3.org/2000/svg" xmlns:xlink="http://www.w3.org/1999/xlink"><style>:root>svg{display:none}:root>svg:target{display:block}</style><svg viewBox="0 0 20 20" id="angle-right" xmlns="http://www.w3.org/2000/svg"><path fill-rule="evenodd" clip-rule="evenodd" d="M7.5 3.94l.53.53 5 5 .53.53-.53.53-5 5-.53.53L6.44 15l.53-.53L11.44 10 6.97 5.53 6.44 5 7.5 3.94z"/></svg><svg viewBox="0 0 20 20" id="arrow-right" xmlns="http://www.w3.org/2000/svg"><path fill-rule="evenodd" clip-rule="evenodd" d="M10 3.106l.53.53 5.833 5.834.53.53-.53.53-5.833 5.834-.53.53-1.06-1.06.53-.531 4.553-4.553H3.416v-1.5h10.607L9.469 4.697l-.53-.53L10 3.106z"/></svg><svg viewBox="0 0 24 24" id="cart" xmlns="http://www.w3.org/2000/svg"><path fill-rule="evenodd" clip-rule="evenodd" d="M5.863 1.625h12.275l.262.35 2.85 3.8.175.233V19.6a2.775 2.775 0 01-2.775 2.775H5.35A2.775 2.775 0 012.575 19.6V6.008l.175-.233 2.85-3.8.263-.35zm.875 1.75L5.2 5.425h13.6l-1.537-2.05H6.738zm12.937 3.8H4.325V19.6a1.025 1.025 0 001.025 1.025h13.3a1.025 1.025 0 001.025-1.025V7.175zm-10.6 2.05v.875a2.925 2.925 0 105.85 0v-.875h1.75v.875a4.675 4.675 0 11-9.35 0v-.875h1.75z"/></svg><svg viewBox="0 0 20 20" id="clock" xmlns="http://www.w3.org/2000/svg"><path d="M10 5.8V10h3.15M17 10a7 7 0 11-14 0 7 7 0 0114 0z" stroke="currentColor" stroke-width="1.5" stroke-linecap="square"/></svg><svg viewBox="0 0 16 16" id="close" xmlns="http://www.w3.org/2000/svg"><path fill-rule="evenodd" clip-rule="evenodd" d="M4 3.116l.442.442L8 7.116l3.558-3.558.442-.442.884.884-.442.442L8.884 8l3.558 3.558.442.442-.884.884-.442-.442L8 8.884l-3.558 3.558-.442.442L3.116 12l.442-.442L7.116 8 3.558 4.442 3.116 4 4 3.116z"/></svg><svg viewBox="0 0 20 20" id="error" xmlns="http://www.w3.org/2000/svg"><path d="M4.874 3.814l-.53-.53-1.06 1.06.53.53 1.06-1.06zm10.252 12.372l.53.53 1.06-1.06-.53-.53-1.06 1.06zM17.25 10A7.25 7.25 0 0110 17.25v1.5A8.75 8.75 0 0018.75 10h-1.5zM10 17.25A7.25 7.25 0 012.75 10h-1.5A8.75 8.75 0 0010 18.75v-1.5zM2.75 10A7.25 7.25 0 0110 2.75v-1.5A8.75 8.75 0 001.25 10h1.5zM10 2.75A7.25 7.25 0 0117.25 10h1.5A8.75 8.75 0 0010 1.25v1.5zM3.814 4.874l11.312 11.312 1.06-1.06L4.874 3.814l-1.06 1.06z"/></svg><svg viewBox="0 0 22 20" id="eye" xmlns="http://www.w3.org/2000/svg"><path fill-rule="evenodd" clip-rule="evenodd" d="M2.688 10a15.644 15.644 0 002.089 2.82c1.499 1.6 3.606 3.097 6.223 3.097s4.724-1.497 6.224-3.097A15.65 15.65 0 0019.312 10a15.652 15.652 0 00-2.088-2.82c-1.5-1.6-3.607-3.097-6.224-3.097S6.276 5.58 4.776 7.18A15.647 15.647 0 002.688 10zm17.479 0l.67-.336-.001-.002-.003-.006-.01-.018a15.283 15.283 0 00-.64-1.087 17.14 17.14 0 00-1.865-2.397C16.692 4.42 14.216 2.584 11 2.584c-3.216 0-5.693 1.836-7.318 3.57a17.147 17.147 0 00-2.348 3.192 10.177 10.177 0 00-.158.292l-.01.018-.002.006-.001.001v.001l.67.336-.67-.335L.994 10l.167.335.671-.335-.67.336v.002l.004.006.009.018a5.885 5.885 0 00.158.292 17.146 17.146 0 002.348 3.192c1.625 1.734 4.102 3.57 7.318 3.57 3.216 0 5.692-1.836 7.318-3.57a17.14 17.14 0 002.348-3.192 9.97 9.97 0 00.158-.292l.009-.018.003-.005v-.002l.001-.001-.67-.336zm0 0l.67.335.168-.335-.168-.335-.67.335zM11 8.25a1.75 1.75 0 100 3.5 1.75 1.75 0 000-3.5zM7.75 10a3.25 3.25 0 116.5 0 3.25 3.25 0 01-6.5 0z"/></svg><svg viewBox="0 0 32 32" id="facebook" xmlns="http://www.w3.org/2000/svg"><path d="M17.069 26.667v-9.732h3.266l.489-3.792h-3.756v-2.421c0-1.098.305-1.847 1.88-1.847h2.008V5.483c-.347-.046-1.54-.15-2.926-.15-2.896 0-4.878 1.768-4.878 5.013v2.797H9.877v3.793h3.275v9.73h3.917z"/></svg><svg viewBox="0 0 24 24" id="favorite" xmlns="http://www.w3.org/2000/svg"><path fill-rule="evenodd" clip-rule="evenodd" d="M4.999 2.596a6.275 6.275 0 016.85 1.366l.004.003.147.15.147-.15.003-.003a6.276 6.276 0 018.89 0c2.491 2.492 2.557 6.623-.416 9.65l-.005.007-8 8-.619.618-.619-.618-8-8-.005-.006C.403 10.585.469 6.454 2.96 3.962a6.275 6.275 0 012.038-1.366zm2.406 1.27A4.525 4.525 0 004.2 5.199h-.001c-1.747 1.748-1.942 4.775.423 7.186L12 19.762l7.378-7.378c2.365-2.411 2.17-5.438.423-7.185v-.001a4.525 4.525 0 00-6.41-.002l-.001.002-.767.777-.623.63-.623-.63-.767-.777-.001-.002a4.525 4.525 0 00-3.204-1.33z"/></svg><svg viewBox="0 0 25 24" id="favorite-filled" xmlns="http://www.w3.org/2000/svg"><path fill-rule="evenodd" clip-rule="evenodd" d="M5.665 2.596a6.275 6.275 0 016.852 1.366l.002.003.148.15.147-.15.003-.003a6.275 6.275 0 018.889 0c2.492 2.492 2.558 6.623-.415 9.65l-.006.007-8.618 8.618-8.625-8.624c-2.972-3.028-2.906-7.159-.415-9.651a6.275 6.275 0 012.038-1.366zm2.407 1.27a4.525 4.525 0 00-3.206 1.332c-1.748 1.748-1.942 4.775.422 7.186l7.379 7.378 7.378-7.378c2.364-2.411 2.17-5.438.423-7.185l-.001-.001a4.525 4.525 0 00-6.41-.002v.002l-1.39 1.407-1.39-1.407-.002-.002a4.525 4.525 0 00-3.203-1.33z"/><path d="M6.336 4.213a4.525 4.525 0 014.94.983v.002l1.39 1.407 1.39-1.407.002-.002a4.525 4.525 0 016.409.002h.001c1.747 1.748 1.941 4.775-.423 7.186l-7.378 7.378-7.379-7.378C2.924 9.973 3.118 6.946 4.865 5.2l.001-.001c.42-.422.92-.757 1.47-.985z" fill-opacity=".12"/></svg><svg viewBox="0 0 20 20" id="filter" xmlns="http://www.w3.org/2000/svg"><path fill-rule="evenodd" clip-rule="evenodd" d="M5.833 4.083a1.75 1.75 0 100 3.5 1.75 1.75 0 000-3.5zm-3.25 1.75a3.25 3.25 0 016.413-.75h8.42v1.5h-8.42a3.251 3.251 0 01-6.413-.75zm11.584 6.584a1.75 1.75 0 100 3.5 1.75 1.75 0 000-3.5zm-3.163 1a3.251 3.251 0 016.413.75 3.25 3.25 0 01-6.414.75H3.418v-1.5h7.587z"/></svg><svg viewBox="0 0 20 12" id="glasses" xmlns="http://www.w3.org/2000/svg"><path fill-rule="evenodd" clip-rule="evenodd" d="M1.2.4a.8.8 0 00-.8.8v6a4.4 4.4 0 108.792-.261 2.396 2.396 0 011.615 0 4.4 4.4 0 108.792.26v-6a.8.8 0 00-1.6 0v2.606a4.4 4.4 0 00-6.808 1.575 3.998 3.998 0 00-2.384 0 4.4 4.4 0 00-6.808-1.575V1.2a.8.8 0 00-.8-.8zm6.4 6.8a2.8 2.8 0 10-5.6 0 2.8 2.8 0 005.6 0zm7.6 2.8a2.8 2.8 0 110-5.6 2.8 2.8 0 010 5.6z"/></svg><svg viewBox="0 0 32 32" id="instagram" xmlns="http://www.w3.org/2000/svg"><path d="M12.668 16a3.333 3.333 0 116.666 0 3.333 3.333 0 01-6.666 0zm-1.802 0a5.135 5.135 0 1010.27 0 5.135 5.135 0 00-10.27 0zm9.273-5.338a1.2 1.2 0 101.2-1.2 1.2 1.2 0 00-1.2 1.2zM11.96 24.14c-.975-.045-1.505-.207-1.857-.344a3.109 3.109 0 01-1.15-.748 3.086 3.086 0 01-.748-1.15c-.137-.352-.3-.882-.344-1.857-.048-1.054-.058-1.37-.058-4.04 0-2.671.01-2.987.058-4.042.045-.975.208-1.504.344-1.857.182-.467.398-.8.748-1.15.35-.35.683-.567 1.15-.748.352-.138.882-.3 1.857-.344C13.014 7.81 13.331 7.8 16 7.8c2.67 0 2.987.01 4.042.059.975.044 1.504.208 1.857.344.466.18.8.398 1.15.748.35.35.566.683.748 1.15.137.352.3.882.344 1.857.048 1.055.058 1.37.058 4.041 0 2.67-.01 2.986-.058 4.041-.044.975-.208 1.505-.344 1.857a3.1 3.1 0 01-.748 1.15 3.11 3.11 0 01-1.15.748c-.352.137-.882.3-1.857.344-1.055.048-1.371.058-4.042.058-2.67 0-2.986-.01-4.04-.058zm-.082-18.08c-1.065.049-1.792.218-2.428.465A4.905 4.905 0 007.68 7.678 4.886 4.886 0 006.525 9.45c-.247.636-.416 1.363-.464 2.427-.05 1.066-.06 1.407-.06 4.123s.01 3.057.06 4.123c.048 1.064.217 1.791.464 2.427a4.888 4.888 0 001.154 1.771 4.916 4.916 0 001.771 1.154c.637.247 1.363.416 2.428.464 1.066.049 1.407.061 4.122.061 2.716 0 3.057-.011 4.123-.06 1.065-.049 1.792-.218 2.427-.465a4.917 4.917 0 001.772-1.154 4.899 4.899 0 001.153-1.77c.248-.637.417-1.364.465-2.428.048-1.067.06-1.407.06-4.123s-.012-3.057-.06-4.123c-.049-1.064-.217-1.792-.465-2.427a4.918 4.918 0 00-1.153-1.772 4.893 4.893 0 00-1.77-1.153c-.637-.247-1.364-.417-2.428-.464C19.058 6.012 18.717 6 16.001 6s-3.057.011-4.123.06z"/></svg><svg viewBox="0 0 20 20" id="list" xmlns="http://www.w3.org/2000/svg"><path fill-rule="evenodd" clip-rule="evenodd" d="M1.625 3.292h16.75v1.75H1.625v-1.75zm0 5.833h16.75v1.75H1.625v-1.75zm0 5.833h16.75v1.75H1.625v-1.75z"/></svg><svg viewBox="0 0 20 20" id="location" xmlns="http://www.w3.org/2000/svg"><path d="M16.546 8.545C16.546 13.636 10 18 10 18s-6.545-4.364-6.545-9.455a6.545 6.545 0 0113.09 0z" stroke="currentColor" stroke-width="1.5" stroke-linecap="square"/><path d="M10 10.727a2.182 2.182 0 100-4.364 2.182 2.182 0 000 4.364z" stroke="currentColor" stroke-width="1.5" stroke-linecap="square"/></svg><svg viewBox="0 0 32 32" id="ok" xmlns="http://www.w3.org/2000/svg"><path d="M16 8.56a2.282 2.282 0 012.28 2.28A2.282 2.282 0 0116 13.118a2.282 2.282 0 01-2.28-2.278A2.282 2.282 0 0116 8.56zm0 7.783a5.51 5.51 0 005.506-5.503A5.512 5.512 0 0016 5.333a5.512 5.512 0 00-5.506 5.507A5.51 5.51 0 0016 16.343zm2.227 4.491a10.308 10.308 0 003.197-1.323 1.613 1.613 0 00-1.718-2.731 6.992 6.992 0 01-7.412 0 1.612 1.612 0 00-2.432 1.723c.095.418.351.78.713 1.008a10.316 10.316 0 003.197 1.323l-3.078 3.079a1.613 1.613 0 002.281 2.28L16 23.17l3.026 3.025a1.611 1.611 0 102.28-2.28l-3.078-3.08z"/></svg><svg viewBox="0 0 20 20" id="package" xmlns="http://www.w3.org/2000/svg"><path d="M17.172 13.155h.625-.625zm0-6.375h.625-.625zM16.375 5.4l.313-.541-.003-.002-.31.543zm-5.578-3.187l-.312.54.002.002.31-.542zm-1.594 0l.31.542.003-.001-.313-.541zM3.625 5.4l-.31-.543-.002.002.312.541zM2.828 6.78h-.625.625zm0 6.375h-.625.625zm.797 1.379l-.312.54.002.002.31-.543zm5.578 3.187l.313-.541-.003-.002-.31.543zm1.594 0l-.31-.543-.002.002.312.541zm5.578-3.188l.31.543.003-.001-.313-.541zM13.48 7.98l.311.542-.31-.542zM6.414 3.807l-.31-.542.31.542zm11.383 9.348V6.78h-1.25v6.375h1.25zm0-6.376c0-.389-.103-.771-.298-1.108l-1.082.626a.97.97 0 01.13.483h1.25zM17.5 5.671a2.218 2.218 0 00-.811-.811l-.625 1.082c.147.085.27.207.354.355L17.5 5.67zm-.814-.813l-5.578-3.187-.62 1.085 5.578 3.188.62-1.086zM11.11 1.672A2.219 2.219 0 0010 1.375v1.25c.17 0 .337.045.485.13l.625-1.083zM10 1.375c-.39 0-.772.103-1.11.297l.626 1.083a.969.969 0 01.484-.13v-1.25zM3.313 4.86a2.219 2.219 0 00-.812.811l1.082.626a.969.969 0 01.355-.355L3.313 4.86zM2.5 5.67a2.219 2.219 0 00-.298 1.108l1.25.001c0-.17.045-.336.13-.483L2.501 5.67zM2.203 6.78v6.375h1.25V6.78h-1.25zm0 6.375c0 .39.103.772.298 1.109l1.082-.626a.97.97 0 01-.13-.484l-1.25.002zm.298 1.109c.195.337.475.616.812.81l.625-1.082a.968.968 0 01-.355-.354l-1.082.626zm.814.812l5.578 3.188.62-1.086-5.578-3.187-.62 1.085zm5.576 3.186c.337.195.72.298 1.11.298v-1.25a.968.968 0 01-.485-.13l-.625 1.082zm1.11.298c.389 0 .771-.103 1.109-.298l-.625-1.082a.968.968 0 01-.485.13v1.25zm1.106-.296l5.578-3.188-.62-1.085-5.578 3.187.62 1.086zm5.58-3.19c.338-.194.618-.473.812-.81l-1.082-.626a.968.968 0 01-.354.354l.625 1.083zm.812-.81c.195-.337.298-.72.298-1.108l-1.25-.002a.97.97 0 01-.13.484l1.082.626zM9.375 9.975v7.96h1.25v-7.96h-1.25zm.936-.542L3.353 5.442l-.622 1.084 6.958 3.991.622-1.084zm0 1.084l3.48-1.995-.623-1.085L9.69 9.433l.622 1.084zm3.48-1.995l3.478-1.996-.622-1.084-3.479 1.995.622 1.085zM8.892 1.67L6.104 3.265l.62 1.085 2.79-1.594-.62-1.085zM6.104 3.265l-2.79 1.593.621 1.086 2.79-1.594-.62-1.085zm7.693 4.176L6.732 3.27l-.636 1.076 7.065 4.173.636-1.077z"/></svg><svg viewBox="0 0 24 24" id="phone" xmlns="http://www.w3.org/2000/svg"><path fill-rule="evenodd" clip-rule="evenodd" d="M5.104 3.875c-.876 0-1.413.781-1.166 1.514.928 2.75 2.654 6.878 5.225 9.448 2.57 2.57 6.699 4.297 9.448 5.225.732.247 1.514-.29 1.514-1.166v-2.793a.226.226 0 00-.116-.197l-2.433-1.353a.226.226 0 00-.21-.004l-2.595 1.297-.265.133-.291-.056.165-.86-.166.86h-.002l-.003-.001-.008-.002-.026-.005a6.057 6.057 0 01-.364-.093 8.209 8.209 0 01-.934-.335 8.325 8.325 0 01-2.616-1.748 8.364 8.364 0 01-1.75-2.618 8.29 8.29 0 01-.413-1.218 3.918 3.918 0 01-.019-.082l-.005-.026-.002-.008v-.005l.858-.168-.859.167-.057-.292.133-.266 1.298-2.595a.226.226 0 00-.005-.21m0 0L8.094 3.99a.226.226 0 00-.198-.116H5.104m4.755 5.838c.052.177.135.427.26.72.26.61.693 1.382 1.38 2.069a6.579 6.579 0 002.064 1.375c.292.124.54.207.716.258l2.303-1.151a1.976 1.976 0 011.844.04l2.433 1.352a1.976 1.976 0 011.016 1.727v2.793c0 1.97-1.86 3.486-3.823 2.824-2.787-.94-7.251-2.77-10.127-5.645C5.05 13.199 3.22 8.735 2.28 5.948c-.662-1.962.854-3.823 2.824-3.823h2.792c.718 0 1.38.39 1.728 1.017l1.346 2.426c.317.57.332 1.26.04 1.843L9.86 9.713z"/></svg><svg viewBox="0 0 20 21" id="plus" xmlns="http://www.w3.org/2000/svg"><path fill-rule="evenodd" clip-rule="evenodd" d="M10.75 3.418v5.834h5.833v1.5H10.75v5.833h-1.5v-5.833H3.417v-1.5H9.25V3.418h1.5z"/></svg><svg viewBox="0 0 20 20" id="refresh" xmlns="http://www.w3.org/2000/svg"><path d="M3.875 2.5v-.625h-1.25V2.5h1.25zM3.25 7h-.625v.625h.625V7zm4.5.625h.625v-1.25H7.75v1.25zm8.375 2.376v.625l1.25-.002V10l-1.25.002zM5.5 4.975l-.417-.466-.001.001.418.465zM16.125 17.5v.625h1.25V17.5h-1.25zm.625-4.5h.625v-.625h-.625V13zm-4.5-.625h-.625v1.25h.625v-1.25zM3.875 9.999v-.625l-1.25.002V10l1.25-.002zM14.5 15.025l.417.466.001-.001-.418-.465zM2.625 2.5V7h1.25V2.5h-1.25zm.625 5.125h4.5v-1.25h-4.5v1.25zm14.125 2.374a7.375 7.375 0 00-1.19-4.009l-1.048.681c.644.991.987 2.148.988 3.33l1.25-.002zm-1.19-4.009a7.375 7.375 0 00-3.177-2.718l-.51 1.142a6.125 6.125 0 012.64 2.257l1.048-.68zm-3.177-2.718a7.375 7.375 0 00-4.145-.553l.192 1.235a6.125 6.125 0 013.443.46l.51-1.142zM8.863 2.72a7.375 7.375 0 00-3.78 1.79l.834.932a6.125 6.125 0 013.138-1.487L8.863 2.72zM5.082 4.51l-2.25 2.025.836.93 2.25-2.025-.836-.93zM17.375 17.5V13h-1.25v4.5h1.25zm-.625-5.125h-4.5v1.25h4.5v-1.25zM2.625 10.001a7.375 7.375 0 001.19 4.009l1.048-.681a6.125 6.125 0 01-.988-3.33l-1.25.002zm1.19 4.009a7.375 7.375 0 003.177 2.718l.51-1.142a6.125 6.125 0 01-2.64-2.257l-1.048.68zm3.177 2.718c1.3.58 2.74.772 4.145.553l-.193-1.235a6.126 6.126 0 01-3.442-.46l-.51 1.142zm4.145.553a7.374 7.374 0 003.78-1.79l-.834-.932a6.125 6.125 0 01-3.139 1.487l.193 1.235zm3.781-1.791l2.25-2.025-.836-.93-2.25 2.025.836.93z"/></svg><svg viewBox="0 0 20 20" id="reload" xmlns="http://www.w3.org/2000/svg"><path fill-rule="evenodd" clip-rule="evenodd" d="M5.322 3.523A7.861 7.861 0 0117.25 8.252l.665-.832.469-.585 1.171.937-.468.585-1.778 2.223-.447.558-.58-.42-2.221-1.61-.608-.441.88-1.214.608.44.822.595a6.362 6.362 0 10-.747 4.978l.396-.637 1.275.79-.396.638A7.861 7.861 0 115.322 3.523z"/></svg><svg viewBox="0 0 24 24" id="search" xmlns="http://www.w3.org/2000/svg"><path fill-rule="evenodd" clip-rule="evenodd" d="M11 3.875a7.125 7.125 0 104.768 12.42l.527-.527A7.125 7.125 0 0011 3.875zm6.864 12.752a8.875 8.875 0 10-1.237 1.237l3.754 3.755.619.618L22.237 21l-.618-.619-3.755-3.755z"/></svg><svg viewBox="0 0 20 20" id="shirt" xmlns="http://www.w3.org/2000/svg"><path d="M16.285 3.595l-.198.593.198-.593zM13 2.5l.197-.593-.822-.274V2.5H13zm-3 3v.625V5.5zm-3-3h.625v-.867l-.823.274L7 2.5zM3.715 3.595l.197.593-.197-.593zM2.71 5.267l.616-.103-.616.104zm.435 2.603l.617-.1v-.003l-.617.103zm.742.63v-.625h-.001l.001.625zm1.613 0h.625v-.625H5.5V8.5zm9 0v-.625h-.625V8.5h.625zm1.612 0l.002-.625h-.002V8.5zm.743-.63l-.617-.103v.003l.617.1zm.435-2.603l-.616-.103.616.104zm-.807-2.265l-3.286-1.095-.395 1.186 3.285 1.095.396-1.186zM12.375 2.5c0 .63-.25 1.234-.696 1.68l.884.883A3.625 3.625 0 0013.625 2.5h-1.25zm-.696 1.68a2.375 2.375 0 01-1.68.695v1.25c.962 0 1.884-.382 2.564-1.062l-.884-.884zM10 4.874c-.629 0-1.233-.25-1.679-.696l-.883.884A3.625 3.625 0 0010 6.125v-1.25zM8.32 4.179A2.375 2.375 0 017.625 2.5h-1.25c0 .961.382 1.883 1.062 2.563l.883-.884zM6.802 1.907L3.517 3.002l.395 1.186 3.285-1.095-.395-1.186zM3.517 3.002c-.48.16-.888.487-1.15.922l1.072.643a.875.875 0 01.473-.379l-.395-1.186zm-1.15.922a2.125 2.125 0 00-.273 1.447l1.232-.207a.875.875 0 01.113-.597l-1.071-.643zM2.094 5.37l.435 2.602 1.233-.206-.435-2.603-1.233.207zm.435 2.599c.052.323.218.617.468.828l.808-.953a.125.125 0 01-.042-.075l-1.234.2zm.468.828c.25.212.566.328.893.327l-.003-1.25a.125.125 0 01-.082-.03l-.808.953zm.891.327H5.5v-1.25H3.887v1.25zm.988-.625V16h1.25V8.5h-1.25zm0 7.5A2.13 2.13 0 007 18.125v-1.25A.88.88 0 016.125 16h-1.25zM7 18.125h6v-1.25H7v1.25zm6 0c.563 0 1.104-.224 1.502-.622l-.883-.884a.875.875 0 01-.62.256v1.25zm1.502-.622c.399-.399.623-.94.623-1.503h-1.25a.875.875 0 01-.256.619l.883.884zM15.125 16V8.5h-1.25V16h1.25zM14.5 9.125h1.612v-1.25H14.5v1.25zm1.61 0c.328 0 .645-.115.894-.327l-.809-.953a.125.125 0 01-.08.03l-.005 1.25zm.894-.327c.25-.211.415-.505.468-.828l-1.234-.2a.125.125 0 01-.043.075l.81.953zm.467-.825l.435-2.602-1.233-.207-.435 2.603 1.233.206zm.435-2.602a2.125 2.125 0 00-.274-1.447l-1.071.643c.107.18.147.39.113.597l1.232.207zm-.274-1.447a2.125 2.125 0 00-1.15-.922l-.395 1.186c.198.066.366.2.474.38l1.071-.644z"/></svg><svg viewBox="0 0 20 20" id="sort-button" xmlns="http://www.w3.org/2000/svg"><path fill-rule="evenodd" clip-rule="evenodd" d="M1.25 3.25h17.5v1.5H1.25v-1.5zm0 6h11.5v1.5H1.25v-1.5zm0 6h6.5v1.5h-6.5v-1.5z"/></svg><svg viewBox="0 0 20 20" id="square" xmlns="http://www.w3.org/2000/svg"><path fill-rule="evenodd" clip-rule="evenodd" d="M16.5 3.5h-13v13h13v-13zM3.5 2H2v16h16V2H3.5z"/></svg><svg viewBox="0 0 48 48" id="tick" xmlns="http://www.w3.org/2000/svg"><path fill-rule="evenodd" clip-rule="evenodd" d="M42 14.446L17.767 37.2 6 25.986l3.476-3.607 8.329 7.938 20.759-19.516L42 14.446z"/></svg><svg viewBox="0 0 14 24" id="triangle" xmlns="http://www.w3.org/2000/svg"><path d="M2.267 8.8L14 0v24L2.267 15.2c-2.134-1.6-2.134-4.8 0-6.4z"/></svg><svg viewBox="0 0 20 20" id="truck" xmlns="http://www.w3.org/2000/svg"><path d="M11.666 4.167h.625v-.625h-.625v.625zm-10 0v-.625h-.624v.625h.625zm0 10h-.624v.624h.625v-.625zm15-.626h-.625v1.25h.625v-1.25zm1.667.625v.625h.625v-.625h-.625zm0-2.783h-.625.625zm-.975-2.358l.442-.442-.442.442zM15.833 7.5l.442-.442-.183-.183h-.259V7.5zm-4.167 0v-.625h-.625V7.5h.625zm.834 7.291h.625v-1.25H12.5v1.25zm-.209-.625v-10h-1.25v10h1.25zm-.625-10.625h-10v1.25h10v-1.25zm-10.625.626v10h1.25v-10h-1.25zm15.625 10.625h1.667v-1.25h-1.666v1.25zm2.292-.626v-2.783h-1.25v2.784h1.25zm0-2.782a3.96 3.96 0 00-.3-1.516l-1.155.478c.136.329.206.68.205 1.037h1.25zm-.3-1.516a3.96 3.96 0 00-.858-1.285l-.884.884c.251.251.45.55.587.879l1.155-.478zM17.8 8.583l-1.525-1.525-.884.884 1.525 1.525.884-.884zm-1.967-1.708h-4.167v1.25h4.167v-1.25zm-4.792.625v6.666h1.25V7.5h-1.25zm.625 7.291h.834v-1.25h-.834v1.25zm-3.958-.208c0 .806-.653 1.458-1.458 1.458v1.25a2.708 2.708 0 002.708-2.708h-1.25zM6.25 16.041a1.458 1.458 0 01-1.458-1.458h-1.25a2.708 2.708 0 002.708 2.708v-1.25zm9.791-1.458c0 .806-.652 1.458-1.458 1.458v1.25a2.708 2.708 0 002.708-2.708h-1.25zm-1.458 1.458a1.458 1.458 0 01-1.458-1.458h-1.25a2.708 2.708 0 002.708 2.708v-1.25zm-1.458-1.458c0-.805.653-1.458 1.458-1.458v-1.25a2.708 2.708 0 00-2.708 2.708h1.25zm1.458-1.458c.806 0 1.458.653 1.458 1.458h1.25a2.708 2.708 0 00-2.708-2.708v1.25zM1.667 14.79h2.541v-1.25H1.666v1.25zm3.125-.208c0-.1.01-.198.029-.292l-1.225-.249a2.718 2.718 0 00-.054.541h1.25zm-.584.208h4.083v-1.25H4.208v1.25zm4.083 0h3.375v-1.25H8.291v1.25zm-.612-.5c.02.094.03.191.03.292h1.25c0-.184-.02-.366-.055-.54l-1.225.248z"/></svg><svg viewBox="0 0 20 20" id="union" xmlns="http://www.w3.org/2000/svg"><path fill-rule="evenodd" clip-rule="evenodd" d="M3.846 2.75a1.096 1.096 0 100 2.192 1.096 1.096 0 000-2.192zM1.25 3.846a2.596 2.596 0 015.082-.75h7.336a2.597 2.597 0 113.236 3.236v7.336a2.597 2.597 0 11-3.236 3.236H6.332a2.597 2.597 0 11-3.236-3.236V6.332A2.597 2.597 0 011.25 3.846zm3.346 2.486v7.336c.83.25 1.486.905 1.736 1.736h7.336c.25-.83.905-1.486 1.736-1.736V6.332a2.602 2.602 0 01-1.736-1.736H6.332a2.602 2.602 0 01-1.736 1.736zM16.154 2.75a1.096 1.096 0 100 2.192 1.096 1.096 0 000-2.192zM3.846 15.058a1.096 1.096 0 100 2.192 1.096 1.096 0 000-2.192zm12.308 0a1.096 1.096 0 100 2.192 1.096 1.096 0 000-2.192z"/></svg><svg viewBox="0 0 24 24" id="user" xmlns="http://www.w3.org/2000/svg"><path fill-rule="evenodd" clip-rule="evenodd" d="M12 2.875a3.57 3.57 0 100 7.139 3.57 3.57 0 000-7.139zm-5.32 3.57a5.32 5.32 0 1110.64 0 5.32 5.32 0 01-10.64 0zm-2.886 9.571a5.32 5.32 0 013.762-1.558h8.889a5.32 5.32 0 015.32 5.32v3.097h-1.75v-3.097a3.57 3.57 0 00-3.57-3.57h-8.89a3.57 3.57 0 00-3.569 3.57v3.097h-1.75v-3.097c0-1.411.56-2.764 1.558-3.762z"/></svg><svg viewBox="0 0 32 32" id="vk" xmlns="http://www.w3.org/2000/svg"><path fill-rule="evenodd" clip-rule="evenodd" d="M26.177 11.023c.149-.494 0-.858-.706-.858h-2.333c-.594 0-.867.314-1.016.66 0 0-1.186 2.893-2.868 4.772-.544.544-.791.717-1.088.717-.148 0-.363-.173-.363-.667v-4.624c0-.593-.172-.858-.667-.858H13.47c-.371 0-.594.276-.594.537 0 .562.84.692.927 2.274v3.437c0 .754-.136.89-.433.89-.79 0-2.715-2.905-3.857-6.23-.224-.647-.448-.908-1.044-.908H6.134c-.667 0-.8.314-.8.66 0 .619.79 3.684 3.684 7.74 1.928 2.768 4.645 4.27 7.118 4.27 1.484 0 1.667-.334 1.667-.908v-2.093c0-.667.14-.8.61-.8.347 0 .94.173 2.325 1.508 1.582 1.583 1.843 2.293 2.733 2.293h2.334c.667 0 1-.334.808-.992-.21-.655-.966-1.607-1.969-2.735-.544-.643-1.36-1.335-1.607-1.681-.346-.445-.247-.643 0-1.038 0 0 2.844-4.006 3.14-5.366z"/></svg><svg viewBox="0 0 20 20" id="wallet" xmlns="http://www.w3.org/2000/svg"><path d="M15.444 10V6.889H4.556A1.556 1.556 0 013 5.333m0 0c0-.855.7-1.555 1.556-1.555h9.333v3.11M3 5.334v9.334c0 .855.7 1.555 1.556 1.555h10.888v-3.111M13.89 10a1.556 1.556 0 000 3.111H17V10h-3.111z" stroke="currentColor" stroke-width="1.5" stroke-linecap="square"/></svg></svg>